<svg width="20" height="20" viewBox="0 0 20 20" fill="none" xmlns="http://www.w3.org/2000/svg">
<path d="M17.5 2.5C17.721 2.5 17.933 2.5878 18.0893 2.74408C18.2456 2.90036 18.3334 3.11232 18.3334 3.33333V16.6667C18.3334 16.8877 18.2456 17.0996 18.0893 17.2559C17.933 17.4122 17.721 17.5 17.5 17.5H2.50002C2.27901 17.5 2.06704 17.4122 1.91076 17.2559C1.75448 17.0996 1.66669 16.8877 1.66669 16.6667V3.33333C1.66669 3.11232 1.75448 2.90036 1.91076 2.74408C2.06704 2.5878 2.27901 2.5 2.50002 2.5H17.5ZM7.83252 6.66667H6.16585L3.49919 13.3333H5.29419L5.62752 12.5H8.36919L8.70252 13.3333H10.4984L7.83252 6.66667ZM15.8334 6.66667H14.1667V8.33333H13.3334C12.6826 8.33271 12.0572 8.58585 11.5902 9.03898C11.1231 9.4921 10.8511 10.1095 10.832 10.76C10.8129 11.4104 11.0482 12.0427 11.4879 12.5225C11.9276 13.0022 12.537 13.2916 13.1867 13.3292L13.3334 13.3333H15.8334V6.66667ZM14.1667 10V11.6667H13.3334L13.2359 11.6608C13.0333 11.6367 12.8466 11.5392 12.7112 11.3867C12.5758 11.2342 12.5009 11.0373 12.5009 10.8333C12.5009 10.6294 12.5758 10.4325 12.7112 10.28C12.8466 10.1275 13.0333 10.0299 13.2359 10.0058L13.3334 10H14.1667ZM6.99919 9.07083L7.70335 10.8333H6.29335L6.99919 9.07083Z" fill="#C3C3C3"/>
</svg>
