<svg width="24" height="24" viewBox="0 0 24 24" fill="none" xmlns="http://www.w3.org/2000/svg">
    <path
        d="M14.253 4.7234C14.117 4.57941 14.0079 4.40578 13.9322 4.21286C13.8565 4.01993 13.8158 3.81167 13.8125 3.6005C13.8093 3.38932 13.8435 3.17956 13.9131 2.98373C13.9827 2.78789 14.0864 2.60999 14.2179 2.46065C14.3494 2.3113 14.506 2.19357 14.6784 2.11447C14.8508 2.03536 15.0355 1.99652 15.2214 2.00024C15.4074 2.00397 15.5907 2.05019 15.7606 2.13615C15.9304 2.22211 16.0833 2.34605 16.2101 2.50057L23.595 10.8886C23.8544 11.1835 24 11.5832 24 12C24 12.4168 23.8544 12.8165 23.595 13.1114L16.2101 21.4994C16.0833 21.654 15.9304 21.7779 15.7606 21.8638C15.5907 21.9498 15.4074 21.996 15.2214 21.9998C15.0355 22.0035 14.8508 21.9646 14.6784 21.8855C14.506 21.8064 14.3494 21.6887 14.2179 21.5394C14.0864 21.39 13.9827 21.2121 13.9131 21.0163C13.8435 20.8204 13.8093 20.6107 13.8125 20.3995C13.8158 20.1883 13.8565 19.9801 13.9322 19.7871C14.0079 19.5942 14.117 19.4206 14.253 19.2766L19.2748 13.5728L1.38469 13.5728C1.01744 13.5728 0.665242 13.4071 0.405563 13.1121C0.145884 12.8172 0 12.4171 0 12C0 11.5829 0.145884 11.1828 0.405563 10.8879C0.665242 10.5929 1.01744 10.4272 1.38469 10.4272L19.2748 10.4272L14.253 4.7234Z"
        fill="#C3C3C3" />
</svg>