<svg width="24" height="24" viewBox="0 0 24 24" fill="none" xmlns="http://www.w3.org/2000/svg">
    <path
        d="M9.99996 5C9.99996 4.46957 10.2107 3.96086 10.5857 3.58579C10.9608 3.21071 11.4695 3 12 3C12.5304 3 13.0391 3.21071 13.4142 3.58579C13.7892 3.96086 14 4.46957 14 5C15.1484 5.54303 16.1274 6.38833 16.832 7.4453C17.5367 8.50227 17.9404 9.73107 18 11V14C18.0752 14.6217 18.2954 15.2171 18.6428 15.7381C18.9901 16.2592 19.455 16.6914 20 17H3.99996C4.54489 16.6914 5.00977 16.2592 5.35714 15.7381C5.70452 15.2171 5.9247 14.6217 5.99996 14V11C6.05952 9.73107 6.46326 8.50227 7.16791 7.4453C7.87255 6.38833 8.85155 5.54303 9.99996 5"
        stroke="#949494" stroke-width="1.5" stroke-linecap="round" stroke-linejoin="round" />
    <path
        d="M9 17V18C9 18.7956 9.31607 19.5587 9.87868 20.1213C10.4413 20.6839 11.2044 21 12 21C12.7956 21 13.5587 20.6839 14.1213 20.1213C14.6839 19.5587 15 18.7956 15 18V17"
        stroke="#949494" stroke-width="1.5" stroke-linecap="round" stroke-linejoin="round" />
</svg>