<svg width="20" height="20" viewBox="0 0 20 20" fill="none" xmlns="http://www.w3.org/2000/svg">
    <rect width="20" height="20" rx="5" fill="#4ECB71" />
    <path
        d="M5.4989 8.62182C5.18963 8.34629 4.71554 8.37364 4.44001 8.68291C4.16447 8.99219 4.19182 9.46628 4.5011 9.74181L5.4989 8.62182ZM9.28571 13L8.78681 13.56C9.08884 13.8291 9.54985 13.8102 9.82882 13.5172L9.28571 13ZM15.5431 7.51724C15.8288 7.21729 15.8172 6.74256 15.5172 6.4569C15.2173 6.17123 14.7426 6.18281 14.4569 6.48276L15.5431 7.51724ZM4.5011 9.74181L8.78681 13.56L9.78462 12.44L5.4989 8.62182L4.5011 9.74181ZM9.82882 13.5172L15.5431 7.51724L14.4569 6.48276L8.74261 12.4828L9.82882 13.5172Z"
        fill="white" />
</svg>