<svg width="20" height="20" viewBox="0 0 20 20" fill="none" xmlns="http://www.w3.org/2000/svg">
    <g clip-path="url(#clip0_658_58380)">
        <path
            d="M6.66667 13.3333V9.99999C6.66667 9.11593 7.01786 8.26809 7.64298 7.64297C8.2681 7.01785 9.11595 6.66666 10 6.66666C10.8841 6.66666 11.7319 7.01785 12.357 7.64297C12.9821 8.26809 13.3333 9.11593 13.3333 9.99999V13.3333"
            stroke="#FF1A43" stroke-linecap="round" stroke-linejoin="round" />
        <path d="M2.5 10H3.33333M10 2.5V3.33333M16.6667 10H17.5M4.66667 4.66667L5.25 5.25M15.3333 4.66667L14.75 5.25"
            stroke="#FF1A43" stroke-linecap="round" stroke-linejoin="round" />
        <path
            d="M14.1667 13.3333H5.83333C5.3731 13.3333 5 13.7064 5 14.1667V15.8333C5 16.2936 5.3731 16.6667 5.83333 16.6667H14.1667C14.6269 16.6667 15 16.2936 15 15.8333V14.1667C15 13.7064 14.6269 13.3333 14.1667 13.3333Z"
            stroke="#FF1A43" stroke-linecap="round" stroke-linejoin="round" />
    </g>
    <defs>
        <clipPath id="clip0_658_58380">
            <rect width="20" height="20" fill="white" />
        </clipPath>
    </defs>
</svg>