<svg width="20" height="20" viewBox="0 0 20 20" fill="none" xmlns="http://www.w3.org/2000/svg">
<path d="M4.99998 10.8335H1.66665C1.16665 10.8335 0.833313 11.1668 0.833313 11.6668V18.3335C0.833313 18.8335 1.16665 19.1668 1.66665 19.1668H4.99998C5.49998 19.1668 5.83331 18.8335 5.83331 18.3335V11.6668C5.83331 11.1668 5.49998 10.8335 4.99998 10.8335ZM18.3333 7.50016H15C14.5 7.50016 14.1666 7.8335 14.1666 8.3335V18.3335C14.1666 18.8335 14.5 19.1668 15 19.1668H18.3333C18.8333 19.1668 19.1666 18.8335 19.1666 18.3335V8.3335C19.1666 7.8335 18.8333 7.50016 18.3333 7.50016ZM11.6666 0.833496H8.33331C7.83331 0.833496 7.49998 1.16683 7.49998 1.66683V18.3335C7.49998 18.8335 7.83331 19.1668 8.33331 19.1668H11.6666C12.1666 19.1668 12.5 18.8335 12.5 18.3335V1.66683C12.5 1.16683 12.1666 0.833496 11.6666 0.833496Z" fill="#C3C3C3"/>
</svg>
