<svg width="20" height="20" viewBox="0 0 20 20" fill="none" xmlns="http://www.w3.org/2000/svg">
    <path
        d="M10 1.25V5.625C10 6.12185 10.1972 6.59838 10.5483 6.94994C10.8994 7.3015 11.3757 7.49934 11.8725 7.5H16.2475V8.79375C15.5984 8.90617 15 9.21711 14.535 9.68375L9.17625 15.0425C8.57088 15.6476 8.1414 16.4059 7.93375 17.2362L7.55625 18.7475H5.625C5.12772 18.7475 4.65081 18.55 4.29917 18.1983C3.94754 17.8467 3.75 17.3698 3.75 16.8725V3.125C3.75 2.62772 3.94754 2.15081 4.29917 1.79917C4.65081 1.44754 5.12772 1.25 5.625 1.25H10ZM16.2475 10.075C15.9348 10.1674 15.6503 10.3367 15.42 10.5675L10.0625 15.925C9.61786 16.3699 9.30245 16.9273 9.15 17.5375L8.77125 19.0513C8.7394 19.1788 8.74107 19.3124 8.7761 19.4391C8.81112 19.5658 8.87831 19.6813 8.97114 19.7744C9.06397 19.8675 9.17929 19.935 9.3059 19.9704C9.43251 20.0057 9.56612 20.0077 9.69375 19.9762L11.2075 19.5975C11.8178 19.4451 12.3751 19.1297 12.82 18.685L18.18 13.325C18.4871 13.0186 18.6832 12.6185 18.7373 12.1881C18.7915 11.7577 18.var(--font_bold)6 11.3215 18.479 10.9485C18.2573 10.5756 17.9177 10.2872 17.5138 10.129C17.1098 9.9708 16.6647 9.95179 16.2487 10.075H16.2475ZM11.2475 1.5625V5.625C11.2475 5.79076 11.3133 5.94973 11.4306 6.06694C11.5478 6.18415 11.7067 6.25 11.8725 6.25H15.935L11.2475 1.5625Z"
        fill="#C3C3C3" />
</svg>