<svg width="20" height="20" viewBox="0 0 20 20" fill="none" xmlns="http://www.w3.org/2000/svg">
<path d="M2.91669 13.75C3.24821 13.75 3.56615 13.8817 3.80057 14.1161C4.03499 14.3506 4.16669 14.6685 4.16669 15C4.16669 15.3315 4.03499 15.6495 3.80057 15.8839C3.56615 16.1183 3.24821 16.25 2.91669 16.25C2.58517 16.25 2.26722 16.1183 2.0328 15.8839C1.79838 15.6495 1.66669 15.3315 1.66669 15C1.66669 14.6685 1.79838 14.3506 2.0328 14.1161C2.26722 13.8817 2.58517 13.75 2.91669 13.75ZM6.25002 14.1667H17.5025C17.7149 14.1669 17.9192 14.2483 18.0737 14.3941C18.2281 14.5399 18.321 14.7392 18.3335 14.9512C18.3459 15.1632 18.277 15.372 18.1406 15.5349C18.0043 15.6978 17.8109 15.8024 17.6 15.8275L17.5025 15.8334H6.25002C6.03769 15.8329 5.83354 15.7514 5.67925 15.6056C5.52496 15.4597 5.43218 15.2604 5.41984 15.0484C5.4075 14.8365 5.47655 14.6278 5.61287 14.465C5.74919 14.3022 5.94251 14.1976 6.15335 14.1725L6.25002 14.1667H17.5025H6.25002ZM2.91669 8.75003C3.24821 8.75003 3.56615 8.88172 3.80057 9.11614C4.03499 9.35056 4.16669 9.66851 4.16669 10C4.16669 10.3315 4.03499 10.6495 3.80057 10.8839C3.56615 11.1183 3.24821 11.25 2.91669 11.25C2.58517 11.25 2.26722 11.1183 2.0328 10.8839C1.79838 10.6495 1.66669 10.3315 1.66669 10C1.66669 9.66851 1.79838 9.35056 2.0328 9.11614C2.26722 8.88172 2.58517 8.75003 2.91669 8.75003ZM6.25002 9.16669H17.5025C17.7149 9.16693 17.9192 9.24826 18.0737 9.39407C18.2281 9.53987 18.321 9.73915 18.3335 9.95119C18.3459 10.1632 18.277 10.372 18.1406 10.5349C18.0043 10.6978 17.8109 10.8024 17.6 10.8275L17.5025 10.8334H6.25002C6.03769 10.8329 5.83354 10.7514 5.67925 10.6056C5.52496 10.4597 5.43218 10.2604 5.41984 10.0484C5.4075 9.83648 5.47655 9.62779 5.61287 9.465C5.74919 9.30221 5.94251 9.1976 6.15335 9.17253L6.25002 9.16669H17.5025H6.25002ZM2.91669 3.75669C3.0835 3.75238 3.24949 3.78152 3.40486 3.84238C3.56024 3.90324 3.70185 3.99459 3.82136 4.11106C3.94087 4.22752 4.03585 4.36673 4.1007 4.52048C4.16555 4.67423 4.19896 4.83941 4.19896 5.00628C4.19896 5.17314 4.16555 5.33832 4.1007 5.49208C4.03585 5.64583 3.94087 5.78504 3.82136 5.9015C3.70185 6.01796 3.56024 6.10931 3.40486 6.17017C3.24949 6.23103 3.0835 6.26017 2.91669 6.25586C2.58517 6.25586 2.26722 6.12416 2.0328 5.88974C1.79838 5.65532 1.66669 5.33738 1.66669 5.00586C1.66669 4.67434 1.79838 4.3564 2.0328 4.12198C2.26722 3.88756 2.58517 3.75586 2.91669 3.75586V3.75669ZM6.25002 4.16669H17.5025C17.7149 4.16693 17.9192 4.24826 18.0737 4.39407C18.2281 4.53987 18.321 4.73915 18.3335 4.95119C18.3459 5.16322 18.277 5.37201 18.1406 5.53489C18.0043 5.69776 17.8109 5.80244 17.6 5.82753L17.5025 5.83336H6.25002C6.03769 5.83291 5.83354 5.75144 5.67925 5.60556C5.52496 5.45969 5.43218 5.26042 5.41984 5.04845C5.4075 4.83648 5.47655 4.62779 5.61287 4.465C5.74919 4.30221 5.94251 4.1976 6.15335 4.17253L6.25002 4.16669H17.5025H6.25002Z" fill="#C3C3C3"/>
</svg>
