<svg width="30" height="30" viewBox="0 0 30 30" fill="none" xmlns="http://www.w3.org/2000/svg">
<path d="M9.22222 8H15.8889C16.5 8 17 7.55 17 7C17 6.45 16.5 6 15.8889 6H9.22222C8 6 7 6.9 7 8V22C7 23.1 8 24 9.22222 24H15.8889C16.5 24 17 23.55 17 23C17 22.45 16.5 22 15.8889 22H9.22222V8Z" fill="#C3C3C3"/>
<path d="M22.8562 14.681L20.0168 12.1381C19.9461 12.073 19.8552 12.0283 19.7559 12.0097C19.6565 11.9911 19.5533 11.9994 19.4593 12.0337C19.3653 12.0679 19.2849 12.1265 19.2283 12.202C19.1717 12.2774 19.1415 12.3662 19.1416 12.4571V14.0886H12.0177C11.458 14.0886 11 14.4987 11 15C11 15.5013 11.458 15.9114 12.0177 15.9114H19.1416V17.5429C19.1416 17.953 19.6912 18.1535 20.0067 17.8619L22.846 15.319C23.0496 15.1458 23.0496 14.8542 22.8562 14.681Z" fill="#C3C3C3"/>
</svg>
