<svg width="20" height="20" viewBox="0 0 20 20" fill="none" xmlns="http://www.w3.org/2000/svg">
<path d="M4.37502 4.1665C3.65673 4.1665 2.96785 4.45185 2.45994 4.95976C1.95203 5.46767 1.66669 6.15654 1.66669 6.87484V7.9165H18.3334V6.87484C18.3334 6.51917 18.2633 6.16699 18.1272 5.8384C17.9911 5.50981 17.7916 5.21125 17.5401 4.95976C17.2886 4.70826 16.99 4.50877 16.6615 4.37266C16.3329 4.23656 15.9807 4.1665 15.625 4.1665H4.37502ZM18.3334 9.1665H1.66669V13.1248C1.66669 13.8431 1.95203 14.532 2.45994 15.0399C2.96785 15.5478 3.65673 15.8332 4.37502 15.8332H15.625C15.9807 15.8332 16.3329 15.7631 16.6615 15.627C16.99 15.4909 17.2886 15.2914 17.5401 15.0399C17.7916 14.7884 17.9911 14.4899 18.1272 14.1613C18.2633 13.8327 18.3334 13.4805 18.3334 13.1248V9.1665ZM13.125 12.0832H15.2084C15.3741 12.0832 15.5331 12.149 15.6503 12.2662C15.7675 12.3834 15.8334 12.5424 15.8334 12.7082C15.8334 12.8739 15.7675 13.0329 15.6503 13.1501C15.5331 13.2673 15.3741 13.3332 15.2084 13.3332H13.125C12.9593 13.3332 12.8003 13.2673 12.6831 13.1501C12.5659 13.0329 12.5 12.8739 12.5 12.7082C12.5 12.5424 12.5659 12.3834 12.6831 12.2662C12.8003 12.149 12.9593 12.0832 13.125 12.0832Z" fill="#C3C3C3"/>
</svg>
