<svg width="50" height="50" viewBox="0 0 50 50" fill="none" xmlns="http://www.w3.org/2000/svg">
<path d="M33.4433 23.1772H26.1584V15.8922C26.1584 15.6813 25.9858 15.5088 25.7749 15.5088H23.4744C23.2635 15.5088 23.091 15.6813 23.091 15.8922V23.1772H15.806C15.5951 23.1772 15.4226 23.3497 15.4226 23.5606V25.8611C15.4226 26.072 15.5951 26.2445 15.806 26.2445H23.091V33.5295C23.091 33.7404 23.2635 33.9129 23.4744 33.9129H25.7749C25.9858 33.9129 26.1584 33.7404 26.1584 33.5295V26.2445H33.4433C33.6542 26.2445 33.8268 26.072 33.8268 25.8611V23.5606C33.8268 23.3497 33.6542 23.1772 33.4433 23.1772Z" fill="#DBDBDB"/>
<path d="M24.6248 3.23926C12.7676 3.23926 3.15332 12.8535 3.15332 24.7108C3.15332 36.568 12.7676 46.1823 24.6248 46.1823C36.4821 46.1823 46.0963 36.568 46.0963 24.7108C46.0963 12.8535 36.4821 3.23926 24.6248 3.23926ZM24.6248 42.5398C14.7805 42.5398 6.79581 34.5551 6.79581 24.7108C6.79581 14.8665 14.7805 6.88174 24.6248 6.88174C34.4691 6.88174 42.4538 14.8665 42.4538 24.7108C42.4538 34.5551 34.4691 42.5398 24.6248 42.5398Z" fill="#DBDBDB"/>
</svg>
