<svg width="20" height="20" viewBox="0 0 20 20" fill="none" xmlns="http://www.w3.org/2000/svg">
<path d="M3.33285 18.002C3.33285 18.002 1.99951 18.002 1.99951 16.6686C1.99951 15.3353 3.33285 11.3353 9.99951 11.3353C16.6662 11.3353 17.9995 15.3353 17.9995 16.6686C17.9995 18.002 16.6662 18.002 16.6662 18.002H3.33285ZM9.99951 10.002C11.0604 10.002 12.0778 9.58053 12.8279 8.83038C13.5781 8.08024 13.9995 7.06282 13.9995 6.00195C13.9995 4.94109 13.5781 3.92367 12.8279 3.17353C12.0778 2.42338 11.0604 2.00195 9.99951 2.00195C8.93865 2.00195 7.92123 2.42338 7.17108 3.17353C6.42094 3.92367 5.99951 4.94109 5.99951 6.00195C5.99951 7.06282 6.42094 8.08024 7.17108 8.83038C7.92123 9.58053 8.93865 10.002 9.99951 10.002Z" fill="#C3C3C3"/>
</svg>
